<svg xmlns="http://www.w3.org/2000/svg" width="316.985" height="383.587" viewBox="0 0 316.985 383.587">
  <g id="グループ_13" data-name="グループ 13" transform="translate(-220 -1317)">
    <g id="トラベルアイコン" transform="translate(175.551 1317)">
      <path id="パス_7" data-name="パス 7" d="M240.6,88.9A135.935,135.935,0,1,0,376.537,224.83,135.929,135.929,0,0,0,240.6,88.9Zm-79.92,56.012a113.58,113.58,0,0,1,25.894-19.367A138.922,138.922,0,0,0,173.448,151.5h-18.76C156.618,149.243,158.579,147.009,160.679,144.91Zm-19.246,25.685H167.44a214.19,214.19,0,0,0-6.369,44.685H128.062A112.31,112.31,0,0,1,141.433,170.595Zm.012,108.477a112.205,112.205,0,0,1-13.384-44.7h32.877a213.077,213.077,0,0,0,6.489,44.7Zm19.234,25.678c-2.1-2.1-4.06-4.326-5.983-6.584h18.76a147.126,147.126,0,0,0,9.057,19.385c1.31,2.3,2.708,4.458,4.118,6.6A113.186,113.186,0,0,1,160.679,304.75Zm70.376,32.624c-.948-.076-1.9-.12-2.853-.228a42.278,42.278,0,0,1-9.285-5.262c-9.24-6.863-18.013-18.544-24.805-33.717h36.943v39.208Zm0-58.3H187.269a190.734,190.734,0,0,1-7.1-44.7h50.89Zm0-63.792H180.026a191.307,191.307,0,0,1,7.179-44.685h43.85Zm0-63.779H194.163c1.569-3.5,3.207-6.875,4.978-9.993,5.844-10.367,12.694-18.443,19.777-23.73a42.543,42.543,0,0,1,9.279-5.25c.948-.107,1.91-.151,2.859-.234V151.5Zm108.717,19.094a112.309,112.309,0,0,1,13.37,44.685H320.26a213.078,213.078,0,0,0-6.49-44.685h26ZM320.525,144.91c2.1,2.1,4.061,4.333,5.99,6.591H307.743a146.077,146.077,0,0,0-9.064-19.392c-1.3-2.3-2.707-4.452-4.1-6.6A113.954,113.954,0,0,1,320.525,144.91Zm-70.382-32.617c.948.082,1.91.127,2.859.234a42.66,42.66,0,0,1,9.278,5.25c9.247,6.862,18.014,18.557,24.813,33.723H250.143Zm0,58.3h43.793a191.005,191.005,0,0,1,7.1,44.685H250.143Zm31.921,137.558c-5.85,10.367-12.7,18.45-19.784,23.731A42.4,42.4,0,0,1,253,337.145c-.948.108-1.9.151-2.852.228V298.166h36.9C285.467,301.663,283.836,305.041,282.064,308.152Zm-31.921-29.081v-44.7h51.028a191.274,191.274,0,0,1-7.179,44.7Zm70.382,25.678a113,113,0,0,1-25.894,19.367,138.959,138.959,0,0,0,13.118-25.951h18.758C324.586,300.424,322.625,302.65,320.525,304.75Zm19.233-25.678h-26a213.679,213.679,0,0,0,6.369-44.7h33.015A112.169,112.169,0,0,1,339.759,279.072Z" transform="translate(-15.103 -22.296)" fill="#ffdbed"/>
      <path id="パス_8" data-name="パス 8" d="M312.063,360A165.747,165.747,0,1,1,138.935,77.311l-7.976-13.023A181.023,181.023,0,1,0,320.045,373.034l-7.982-13.022Z" transform="translate(0 -16.124)" fill="#ffdbed"/>
      <path id="パス_9" data-name="パス 9" d="M235.146,52.307h71.463c7.356,0,13.326-2.485,13.326-9.853S305.85,27.97,298.495,27.97H283.733L253.69.925c-1.505-1.663-7.469-.575-9.278-.569-2.233.013-1.746,3.58-.886,5.654l8.779,21.96H231.281L219.751,9.653a7.259,7.259,0,0,0-12.618,4.889l-.19,13.427v3.965C206.943,43.187,220.466,52.307,235.146,52.307Z" transform="translate(-40.755 0)" fill="#ffdbed"/>
    </g>
    <g id="日本地図のアイコン" transform="translate(298.632 1429.12)">
      <path id="パス_1" data-name="パス 1" d="M194.535,437.023a8.527,8.527,0,0,1-8.525,8.525H168.081a8.523,8.523,0,0,1-8.525-8.525v-3.936a8.523,8.523,0,0,1,8.525-8.525H186.01a8.527,8.527,0,0,1,8.525,8.525Z" transform="translate(-98.071 -275.401)" fill="#ff90c8"/>
      <path id="パス_2" data-name="パス 2" d="M18.392,365.687h-1.5a8.53,8.53,0,0,0-8.525,8.525v11.775c0,4.71,2.2,8.531,5.956,8.531h.939c4.068,0,3.129,3.815,3.129,8.525v5.523a8.531,8.531,0,0,0,8.526,8.525H39.95a8.527,8.527,0,0,0,8.525-8.525V374.212a8.527,8.527,0,0,0-8.525-8.525H18.392Z" transform="translate(0 -237.211)" fill="#ff90c8"/>
      <path id="パス_3" data-name="パス 3" d="M184.455,161.438a8.518,8.518,0,0,0-8.328,6.719l-4.765,21.969a8.524,8.524,0,0,1-8.333,6.719H109.644a8.53,8.53,0,0,0-8.525,8.525v6.456a8.53,8.53,0,0,0,8.525,8.525H111.4a8.531,8.531,0,0,1,8.525,8.531v4.243a8.53,8.53,0,0,0,8.525,8.525H194.54a8.531,8.531,0,0,0,8.328-6.708l13.812-63.162a8.526,8.526,0,0,0-8.333-10.342H184.455Z" transform="translate(-60.165 -104.72)" fill="#ff90c8"/>
      <path id="パス_4" data-name="パス 4" d="M388.289,38.207a8.52,8.52,0,0,1-8.377,6.917h-37.07A8.527,8.527,0,0,1,334.464,35l5.358-28.073A8.529,8.529,0,0,1,348.2,0h37.076a8.535,8.535,0,0,1,8.372,10.134Z" transform="translate(-211.431)" fill="#ff90c8"/>
    </g>
  </g>
</svg>
